<svg width="34" height="34" viewBox="0 0 34 34" fill="none" xmlns="http://www.w3.org/2000/svg">
<path d="M19.8284 21.2426L17 24.0711C16.0218 25.0492 14.8433 25.5383 13.4645 25.5383C12.0856 25.5383 10.9071 25.0492 9.92894 24.0711C8.95077 23.0929 8.46169 21.9144 8.46169 20.5355C8.46169 19.1567 8.95077 17.9782 9.92894 17L12.7574 14.1716L14.1716 15.5858L11.3431 18.4142C10.7539 19.0035 10.4593 19.7106 10.4593 20.5355C10.4593 21.3605 10.7539 22.0676 11.3431 22.6569C11.9324 23.2461 12.6395 23.5407 13.4645 23.5407C14.2894 23.5407 14.9965 23.2461 15.5858 22.6569L18.4142 19.8284L19.8284 21.2426ZM14.8787 20.5355L13.4645 19.1213L19.1213 13.4645L20.5355 14.8787L14.8787 20.5355ZM21.2426 19.8284L19.8284 18.4142L22.6569 15.5858C23.2461 14.9965 23.5407 14.2894 23.5407 13.4645C23.5407 12.6395 23.2461 11.9324 22.6569 11.3431C22.0676 10.7539 21.3605 10.4593 20.5355 10.4593C19.7106 10.4593 19.0035 10.7539 18.4142 11.3431L15.5858 14.1716L14.1716 12.7574L17 9.92894C17.9782 8.95077 19.1567 8.46169 20.5355 8.46169C21.9144 8.46169 23.0929 8.95077 24.0711 9.92894C25.0492 10.9071 25.5383 12.0856 25.5383 13.4645C25.5383 14.8433 25.0492 16.0218 24.0711 17L21.2426 19.8284Z" fill="#fafafa"/>
</svg>
