<svg width="212" height="72" viewBox="0 0 212 72" fill="none" xmlns="http://www.w3.org/2000/svg">
<path d="M21.9844 70.8438C17.9844 70.8438 14.375 69.8125 11.1562 67.75C7.9375 65.6875 5.39062 62.6562 3.51562 58.6562C1.64062 54.625 0.703125 49.7031 0.703125 43.8906C0.703125 37.8906 1.67188 32.8906 3.60938 28.8906C5.54688 24.8906 8.125 21.9062 11.3438 19.9375C14.5625 17.9375 18.0781 16.9375 21.8906 16.9375C24.8281 16.9375 27.2812 17.4375 29.25 18.4375C31.2188 19.4062 32.8125 20.625 34.0312 22.0938C35.25 23.5625 36.1719 25.0156 36.7969 26.4531H37.2188V0.15625H51.75V70H37.4531V61.6094H36.7969C36.1406 63.0469 35.1875 64.4844 33.9375 65.9219C32.6875 67.3281 31.0781 68.5 29.1094 69.4375C27.1719 70.375 24.7969 70.8438 21.9844 70.8438ZM37.5469 43.8438C37.5469 39.1562 36.5938 35.4219 34.6875 32.6406C32.7812 29.8594 30.0625 28.4688 26.5312 28.4688C22.9375 28.4688 20.2031 29.8906 18.3281 32.7344C16.4844 35.5781 15.5625 39.2812 15.5625 43.8438C15.5625 48.375 16.5 52.0938 18.375 55C20.25 57.875 22.9688 59.3125 26.5312 59.3125C30.0312 59.3125 32.7344 57.8906 34.6406 55.0469C36.5781 52.2031 37.5469 48.4688 37.5469 43.8438ZM82.4344 71.0312C77.0594 71.0312 72.4344 69.9375 68.5594 67.75C64.6844 65.5625 61.7 62.4531 59.6063 58.4219C57.5125 54.3594 56.4656 49.5625 56.4656 44.0312C56.4656 38.6562 57.4969 33.9375 59.5594 29.875C61.6531 25.8125 64.5906 22.6406 68.3719 20.3594C72.1531 18.0781 76.6063 16.9375 81.7313 16.9375C86.3563 16.9375 90.5281 17.9219 94.2469 19.8906C97.9969 21.8594 100.966 24.8125 103.153 28.75C105.372 32.6875 106.481 37.625 106.481 43.5625V47.5H70.7625C70.9188 51.4688 72.075 54.5781 74.2313 56.8281C76.3875 59.0781 79.2 60.2031 82.6688 60.2031C85.075 60.2031 87.1375 59.6875 88.8563 58.6562C90.6063 57.625 91.8563 56.125 92.6063 54.1562L106.013 55.0469C104.981 59.8594 102.403 63.7344 98.2781 66.6719C94.1844 69.5781 88.9031 71.0312 82.4344 71.0312ZM70.8563 38.5469H92.5594C92.2156 35.2344 91.1531 32.6094 89.3719 30.6719C87.5906 28.7344 85.0906 27.7656 81.8719 27.7656C78.6219 27.7656 76.0438 28.7812 74.1375 30.8125C72.2625 32.8125 71.1688 35.3906 70.8563 38.5469ZM154.744 32.5469L141.525 33.3438C141.15 31.6875 140.213 30.2656 138.713 29.0781C137.244 27.8594 135.244 27.25 132.713 27.25C130.463 27.25 128.572 27.7188 127.041 28.6562C125.509 29.5938 124.744 30.8438 124.744 32.4062C124.744 33.6562 125.244 34.7188 126.244 35.5938C127.244 36.4688 128.947 37.1719 131.353 37.7031L140.869 39.5781C150.931 41.5781 155.963 46.2969 155.963 53.7344C155.963 57.2031 154.963 60.2344 152.963 62.8281C150.963 65.4219 148.213 67.4375 144.713 68.875C141.213 70.3125 137.197 71.0312 132.666 71.0312C125.728 71.0312 120.213 69.5938 116.119 66.7188C112.025 63.8125 109.619 59.8594 108.9 54.8594L123.15 54.1094C124.119 58.4219 127.306 60.5781 132.713 60.5781C135.244 60.5781 137.291 60.0781 138.853 59.0781C140.416 58.0781 141.197 56.8125 141.197 55.2812C141.197 52.6875 138.963 50.9375 134.494 50.0312L125.447 48.1562C115.353 46.125 110.306 41.1562 110.306 33.25C110.306 28.1875 112.322 24.2031 116.353 21.2969C120.416 18.3906 125.791 16.9375 132.478 16.9375C139.103 16.9375 144.322 18.3438 148.134 21.1562C151.947 23.9375 154.15 27.7344 154.744 32.5469ZM188.194 17.5938V28.5625H178.256V53.875C178.256 57.2812 179.913 58.9844 183.225 58.9844C183.788 58.9844 184.397 58.9375 185.053 58.8438C185.741 58.75 186.334 58.6406 186.834 58.5156L189.131 69.3906C186.038 70.2969 183.038 70.75 180.131 70.75C174.944 70.75 170.913 69.4375 168.038 66.8125C165.194 64.1875 163.772 60.5156 163.772 55.7969V28.5625H156.647V17.5938H163.772V5.125H178.256V17.5938H188.194ZM203.269 70.8906C200.956 70.8906 199.003 70.1094 197.409 68.5469C195.816 66.9531 195.019 65.0156 195.019 62.7344C195.019 60.4219 195.816 58.4844 197.409 56.9219C199.003 55.3594 200.956 54.5781 203.269 54.5781C205.581 54.5781 207.534 55.3594 209.128 56.9219C210.722 58.4844 211.519 60.4219 211.519 62.7344C211.519 65.0156 210.722 66.9531 209.128 68.5469C207.534 70.1094 205.581 70.8906 203.269 70.8906Z" fill="white"/>
</svg>
